<svg xmlns="http://www.w3.org/2000/svg" viewBox="0 0 64 64" fill="none">
  <!-- Cup body -->
  <path d="M12 24h32v4c0 10-6 18-16 18S12 38 12 28v-4z" fill="#E8834A"/>
  <!-- Cup rim highlight -->
  <path d="M12 24h32v3H12z" fill="#C4622D"/>
  <!-- Handle -->
  <path d="M44 28c4 0 8 2 8 6s-4 6-8 6" stroke="#E8834A" stroke-width="3" fill="none" stroke-linecap="round"/>
  <!-- Steam lines -->
  <path d="M22 18c0-4 4-4 4-8" stroke="#E8834A" stroke-width="2" stroke-linecap="round" opacity="0.6"/>
  <path d="M28 16c0-4 4-4 4-8" stroke="#E8834A" stroke-width="2" stroke-linecap="round" opacity="0.4"/>
  <path d="M34 18c0-4 4-4 4-8" stroke="#E8834A" stroke-width="2" stroke-linecap="round" opacity="0.6"/>
  <!-- Mountain peak accent -->
  <path d="M18 30l4-5 4 5" stroke="#FFF8F0" stroke-width="1.5" stroke-linecap="round" stroke-linejoin="round" opacity="0.4"/>
</svg>
